# xmcd
#
# Track frame offsets: 
#        150
#        17798
#        35960
#        49575
#        67132
#        96047
#        109602
#        125484
#        137256
#        153755
#
# Disc length: 2193 seconds
#
# Revision: 0
# Processed by: cddbd v1.5.2PL0 Copyright (c) Steve Scherf et al.
# Submitted via: ExactAudioCopy v1.3
#
DISCID=80088f0a
DTITLE=Vin Mott - Quit The Women For the Blues
DYEAR=2017
DGENRE=blues
TTITLE0=Quit The Women (For The Blues)
TTITLE1=Make Up Your Mind
TTITLE2=Don't Make Me Laugh
TTITLE3=I'm A Filthy Man
TTITLE4=The Factory
TTITLE5=Frieght Train
TTITLE6=I Wanna Get Ruff with You
TTITLE7=Ol' Greasy Blues
TTITLE8=Living The Blues
TTITLE9=Hott Mott's Theme
EXTD=
EXTT0=
EXTT1=
EXTT2=
EXTT3=
EXTT4=
EXTT5=
EXTT6=
EXTT7=
EXTT8=
EXTT9=
PLAYORDER=
